<svg width="29" height="29" viewBox="0 0 29 29" fill="none" xmlns="http://www.w3.org/2000/svg">
<path d="M20.126 11.4839C18.241 11.4839 16.704 9.94684 16.704 8.06189C16.704 6.17694 18.241 4.63989 20.126 4.63989C22.0109 4.63989 23.548 6.17694 23.548 8.06189C23.5479 9.94699 22.0109 11.4839 20.126 11.4839ZM14.877 9.04789C14.877 6.61189 12.9049 4.66889 10.498 4.66889C8.06199 4.66889 6.11899 6.64094 6.11899 9.04789C6.11899 11.4839 8.09104 13.4269 10.498 13.4269C12.934 13.427 14.877 11.4549 14.877 9.04789ZM25.172 19.9809C25.607 19.9809 25.9549 19.6038 25.897 19.1688C25.433 15.8048 23.983 12.4698 20.126 12.4698C17.951 12.4698 16.53 13.5428 15.631 15.0798C16.2689 15.6309 16.8489 16.2688 17.313 17.0519C17.8351 17.8929 18.2991 18.8789 18.647 20.0099H25.172L25.172 19.9809ZM3.10299 23.1129C3.01595 23.7508 3.50902 24.3599 4.17594 24.3599H16.8199C17.487 24.3599 17.9799 23.7799 17.8929 23.1129C17.2549 18.8789 15.3989 14.7029 10.4979 14.7029C5.59714 14.7029 3.74114 18.8789 3.10289 23.1129H3.10299Z" fill="black"/>
</svg>
