<svg width="40" height="41" viewBox="0 0 40 41" fill="none" xmlns="http://www.w3.org/2000/svg">
<path fill-rule="evenodd" clip-rule="evenodd" d="M18.5 14.5C18.5 14.1022 18.658 13.7206 18.9393 13.4393C19.2206 13.158 19.6022 13 20 13C20.3978 13 20.7794 13.158 21.0607 13.4393C21.342 13.7206 21.5 14.1022 21.5 14.5C21.5 14.8978 21.342 15.2794 21.0607 15.5607C20.7794 15.842 20.3978 16 20 16C19.6022 16 19.2206 15.842 18.9393 15.5607C18.658 15.2794 18.5 14.8978 18.5 14.5ZM18.5 20.5C18.5 20.1022 18.658 19.7206 18.9393 19.4393C19.2206 19.158 19.6022 19 20 19C20.3978 19 20.7794 19.158 21.0607 19.4393C21.342 19.7206 21.5 20.1022 21.5 20.5C21.5 20.8978 21.342 21.2794 21.0607 21.5607C20.7794 21.842 20.3978 22 20 22C19.6022 22 19.2206 21.842 18.9393 21.5607C18.658 21.2794 18.5 20.8978 18.5 20.5ZM18.5 26.5C18.5 26.1022 18.658 25.7206 18.9393 25.4393C19.2206 25.158 19.6022 25 20 25C20.3978 25 20.7794 25.158 21.0607 25.4393C21.342 25.7206 21.5 26.1022 21.5 26.5C21.5 26.8978 21.342 27.2794 21.0607 27.5607C20.7794 27.842 20.3978 28 20 28C19.6022 28 19.2206 27.842 18.9393 27.5607C18.658 27.2794 18.5 26.8978 18.5 26.5Z" fill="#5D6679"/>
</svg>
