<svg width="23" height="21" viewBox="0 0 23 21" fill="none" xmlns="http://www.w3.org/2000/svg">
<g clip-path="url(#clip0_2179_3634)">
<path d="M11.5532 7.17423L14.6419 10.1804L14.6566 10.0229C14.6566 8.44347 13.3378 7.15991 11.715 7.15991L11.5532 7.17423Z" fill="black"/>
<path d="M11.7151 5.25129C14.4214 5.25129 16.6178 7.389 16.6178 10.0229C16.6178 10.6385 16.4903 11.2254 16.2697 11.7646L19.1377 14.556C20.6183 13.3535 21.7852 11.798 22.5059 10.0229C20.8047 5.83346 16.6227 2.86548 11.7151 2.86548C10.3424 2.86548 9.0285 3.10405 7.80774 3.53349L9.92569 5.59006C10.4796 5.38012 11.0827 5.25129 11.7151 5.25129Z" fill="black"/>
<path d="M1.90971 2.65061L4.14532 4.82648L4.59148 5.26071C2.97361 6.49179 1.69401 8.12848 0.929199 10.0228C2.62553 14.2123 6.81238 17.1803 11.7151 17.1803C13.2349 17.1803 14.6861 16.894 16.0147 16.3738L16.4314 16.7794L19.2897 19.5661L20.5399 18.3541L3.15989 1.43384L1.90971 2.65061ZM7.33208 7.92329L8.847 9.39772C8.80288 9.60292 8.77346 9.80807 8.77346 10.0228C8.77346 11.6022 10.0923 12.8858 11.7151 12.8858C11.9357 12.8858 12.1465 12.8572 12.3524 12.8142L13.8673 14.2886C13.2153 14.6036 12.4897 14.7945 11.7151 14.7945C9.00879 14.7945 6.81238 12.6567 6.81238 10.0228C6.81238 9.26889 7.0085 8.56267 7.33208 7.92329Z" fill="black"/>
</g>
<defs>
<clipPath id="clip0_2179_3634">
<rect width="21.5766" height="21" fill="white" transform="translate(0.929199)"/>
</clipPath>
</defs>
</svg>
