<svg width="250" height="24" viewBox="0 0 250 24" fill="none" xmlns="http://www.w3.org/2000/svg">
<rect x="0.25" y="0.25" width="249.5" height="23.5" rx="9.75" stroke="black" stroke-width="0.5"/>
<path fill-rule="evenodd" clip-rule="evenodd" d="M16.75 12C16.75 12.4142 16.4142 12.75 16 12.75L6.31078 12.75L9.0307 15.4696C9.32361 15.7625 9.32363 16.2374 9.03075 16.5303C8.73787 16.8232 8.263 16.8232 7.97009 16.5304L3.96969 12.5304C3.82902 12.3897 3.75 12.1989 3.75 12C3.75 11.8011 3.82902 11.6103 3.96969 11.4696L7.97009 7.46964C8.263 7.17676 8.73787 7.17679 9.03075 7.4697C9.32363 7.7626 9.32361 8.23748 9.0307 8.53036L6.31078 11.25L16 11.25C16.4142 11.25 16.75 11.5858 16.75 12Z" fill="#4A4A4A"/>
<path d="M47.0896 8.25V6.81818H55.0889V8.25H51.9319V17H50.2515V8.25H47.0896ZM58.2819 12.4957V17H56.6363V6.81818H58.252V10.6364H58.3465C58.5222 10.2121 58.7956 9.87737 59.1668 9.6321C59.5413 9.38684 60.0219 9.2642 60.6086 9.2642C61.1356 9.2642 61.5963 9.37358 61.9907 9.59233C62.3851 9.81108 62.69 10.1342 62.9055 10.5618C63.1242 10.9893 63.2336 11.5163 63.2336 12.1428V17H61.588V12.3714C61.588 11.8345 61.4504 11.4169 61.1753 11.1186C60.9002 10.8203 60.5158 10.6712 60.0219 10.6712C59.6872 10.6712 59.3872 10.7424 59.1221 10.8849C58.8602 11.0275 58.6547 11.2346 58.5056 11.5064C58.3564 11.7782 58.2819 12.108 58.2819 12.4957ZM69.9974 13.8132V9.36364H71.6381V17H70.0372V15.6577H69.9577C69.782 16.0753 69.5003 16.42 69.1125 16.6918C68.7247 16.9635 68.2425 17.0994 67.6657 17.0994C67.1719 17.0994 66.7344 16.9901 66.3532 16.7713C65.9754 16.5492 65.6788 16.2244 65.4633 15.7969C65.2479 15.3693 65.1402 14.844 65.1402 14.2209V9.36364H66.7858V13.9922C66.7858 14.496 66.9233 14.897 67.1984 15.1953C67.4768 15.4903 67.8381 15.6378 68.2822 15.6378C68.5573 15.6378 68.8258 15.5715 69.0876 15.4389C69.3495 15.303 69.5666 15.1009 69.7389 14.8324C69.9113 14.5606 69.9974 14.2209 69.9974 13.8132ZM73.5621 17V9.36364H75.1579V10.6065H75.2375C75.3767 10.1823 75.6186 9.85085 75.9633 9.61222C76.3113 9.37026 76.7058 9.24929 77.1466 9.24929C77.2427 9.24929 77.3537 9.25426 77.4797 9.2642C77.6056 9.27083 77.7084 9.28078 77.7879 9.29403V10.8352C77.7183 10.812 77.604 10.7905 77.4449 10.7706C77.2891 10.7474 77.135 10.7358 76.9825 10.7358C76.6411 10.7358 76.3362 10.8087 76.0677 10.9545C75.8026 11.0971 75.5921 11.2959 75.4363 11.5511C75.2839 11.803 75.2077 12.0947 75.2077 12.4261V17H73.5621ZM84.9122 11.3075L83.4157 11.5163C83.366 11.3473 83.2815 11.1882 83.1622 11.0391C83.0462 10.8866 82.8888 10.7623 82.6899 10.6662C82.491 10.5701 82.2441 10.522 81.9491 10.522C81.5514 10.522 81.2183 10.6098 80.9498 10.7855C80.6847 10.9612 80.5521 11.1882 80.5521 11.4666C80.5521 11.7053 80.6416 11.8975 80.8206 12.0433C80.9996 12.1892 81.2896 12.3101 81.6906 12.4062L82.9534 12.6847C83.666 12.8437 84.1963 13.0923 84.5443 13.4304C84.8923 13.7685 85.068 14.2093 85.0713 14.7528C85.068 15.2235 84.9304 15.6394 84.6586 16.0007C84.3902 16.3587 84.0157 16.6404 83.5351 16.8459C83.0578 17.0514 82.5059 17.1541 81.8795 17.1541C80.9813 17.1541 80.2555 16.9652 79.702 16.5874C79.1485 16.2062 78.8121 15.6709 78.6927 14.9815L80.2886 14.7827C80.3748 15.1439 80.5521 15.4174 80.8206 15.603C81.089 15.7853 81.4387 15.8764 81.8696 15.8764C82.327 15.8764 82.6932 15.782 82.9683 15.593C83.2434 15.4008 83.3826 15.1671 83.3859 14.892C83.3826 14.66 83.2948 14.4695 83.1224 14.3203C82.9534 14.1679 82.6882 14.0518 82.327 13.9723L81.0344 13.6889C80.3085 13.5331 79.7732 13.2763 79.4285 12.9183C79.0838 12.5571 78.9131 12.103 78.9165 11.5561C78.9131 11.0954 79.0391 10.6944 79.2943 10.353C79.5495 10.0083 79.9041 9.74148 80.3582 9.55256C80.8156 9.36032 81.3409 9.2642 81.9342 9.2642C82.7926 9.2642 83.4688 9.44981 83.9626 9.82102C84.4598 10.1889 84.7763 10.6844 84.9122 11.3075ZM88.6421 15.608L88.5775 16.1499C88.5278 16.5575 88.4433 16.9768 88.324 17.4077C88.2079 17.8419 88.0853 18.2429 87.9561 18.6108C87.8301 18.982 87.7274 19.2737 87.6478 19.4858H86.5143C86.5607 19.2803 86.622 19.0036 86.6982 18.6555C86.7778 18.3075 86.854 17.9164 86.9269 17.4822C87.0032 17.0514 87.0579 16.6122 87.091 16.1648L87.1308 15.608H88.6421ZM95.2444 17H93.4447L97.069 6.81818H99.0924L102.717 17H100.917L98.118 8.78693H98.0384L95.2444 17ZM95.4085 13.0128H100.738V14.3949H95.4085V13.0128ZM108.88 13.8132V9.36364H110.521V17H108.92V15.6577H108.84C108.665 16.0753 108.383 16.42 107.995 16.6918C107.608 16.9635 107.125 17.0994 106.549 17.0994C106.055 17.0994 105.617 16.9901 105.236 16.7713C104.858 16.5492 104.562 16.2244 104.346 15.7969C104.131 15.3693 104.023 14.844 104.023 14.2209V9.36364H105.669V13.9922C105.669 14.496 105.806 14.897 106.081 15.1953C106.36 15.4903 106.721 15.6378 107.165 15.6378C107.44 15.6378 107.709 15.5715 107.97 15.4389C108.232 15.303 108.449 15.1009 108.622 14.8324C108.794 14.5606 108.88 14.2209 108.88 13.8132ZM115.706 20.0227C115.08 20.0227 114.541 19.9399 114.09 19.7741C113.643 19.6084 113.28 19.3864 113.002 19.108C112.723 18.8295 112.523 18.5246 112.4 18.1932L113.847 17.7358C113.93 17.8816 114.044 18.0324 114.19 18.1882C114.336 18.344 114.533 18.4749 114.782 18.581C115.03 18.6903 115.347 18.745 115.731 18.745C116.268 18.745 116.712 18.6141 117.063 18.3523C117.415 18.0938 117.59 17.6728 117.59 17.0895V15.6179H117.496C117.407 15.7936 117.276 15.9808 117.103 16.1797C116.931 16.3752 116.699 16.5426 116.407 16.6818C116.116 16.8177 115.744 16.8857 115.294 16.8857C114.7 16.8857 114.163 16.7464 113.683 16.468C113.206 16.1863 112.826 15.7687 112.544 15.2152C112.263 14.6617 112.122 13.974 112.122 13.152C112.122 12.33 112.261 11.629 112.539 11.049C112.818 10.469 113.197 10.0265 113.678 9.72159C114.158 9.41667 114.7 9.2642 115.304 9.2642C115.764 9.2642 116.139 9.34209 116.427 9.49787C116.719 9.65033 116.949 9.83262 117.118 10.0447C117.287 10.2536 117.416 10.4425 117.506 10.6115H117.605V9.36364H119.221V17.1491C119.221 17.8021 119.067 18.3407 118.759 18.7649C118.454 19.1892 118.036 19.504 117.506 19.7095C116.976 19.9183 116.376 20.0227 115.706 20.0227ZM115.711 15.5632C116.116 15.5632 116.459 15.4671 116.74 15.2749C117.022 15.0826 117.236 14.8059 117.382 14.4446C117.531 14.08 117.605 13.6458 117.605 13.142C117.605 12.6416 117.532 12.2041 117.387 11.8295C117.241 11.455 117.027 11.1634 116.745 10.9545C116.464 10.7424 116.119 10.6364 115.711 10.6364C115.287 10.6364 114.932 10.7457 114.647 10.9645C114.362 11.1832 114.148 11.4815 114.006 11.8594C113.863 12.2372 113.792 12.6648 113.792 13.142C113.792 13.6259 113.865 14.0502 114.011 14.4148C114.157 14.776 114.371 15.0578 114.652 15.2599C114.937 15.4621 115.29 15.5632 115.711 15.5632ZM125.997 13.8132V9.36364H127.638V17H126.037V15.6577H125.958C125.782 16.0753 125.5 16.42 125.112 16.6918C124.725 16.9635 124.242 17.0994 123.666 17.0994C123.172 17.0994 122.734 16.9901 122.353 16.7713C121.975 16.5492 121.679 16.2244 121.463 15.7969C121.248 15.3693 121.14 14.844 121.14 14.2209V9.36364H122.786V13.9922C122.786 14.496 122.923 14.897 123.198 15.1953C123.477 15.4903 123.838 15.6378 124.282 15.6378C124.557 15.6378 124.826 15.5715 125.088 15.4389C125.349 15.303 125.567 15.1009 125.739 14.8324C125.911 14.5606 125.997 14.2209 125.997 13.8132ZM135.443 11.3075L133.947 11.5163C133.897 11.3473 133.813 11.1882 133.693 11.0391C133.577 10.8866 133.42 10.7623 133.221 10.6662C133.022 10.5701 132.775 10.522 132.48 10.522C132.083 10.522 131.75 10.6098 131.481 10.7855C131.216 10.9612 131.083 11.1882 131.083 11.4666C131.083 11.7053 131.173 11.8975 131.352 12.0433C131.531 12.1892 131.821 12.3101 132.222 12.4062L133.485 12.6847C134.197 12.8437 134.728 13.0923 135.076 13.4304C135.424 13.7685 135.599 14.2093 135.603 14.7528C135.599 15.2235 135.462 15.6394 135.19 16.0007C134.921 16.3587 134.547 16.6404 134.066 16.8459C133.589 17.0514 133.037 17.1541 132.411 17.1541C131.513 17.1541 130.787 16.9652 130.233 16.5874C129.68 16.2062 129.343 15.6709 129.224 14.9815L130.82 14.7827C130.906 15.1439 131.083 15.4174 131.352 15.603C131.62 15.7853 131.97 15.8764 132.401 15.8764C132.858 15.8764 133.224 15.782 133.5 15.593C133.775 15.4008 133.914 15.1671 133.917 14.892C133.914 14.66 133.826 14.4695 133.654 14.3203C133.485 14.1679 133.219 14.0518 132.858 13.9723L131.566 13.6889C130.84 13.5331 130.304 13.2763 129.96 12.9183C129.615 12.5571 129.444 12.103 129.448 11.5561C129.444 11.0954 129.57 10.6944 129.826 10.353C130.081 10.0083 130.435 9.74148 130.889 9.55256C131.347 9.36032 131.872 9.2642 132.465 9.2642C133.324 9.2642 134 9.44981 134.494 9.82102C134.991 10.1889 135.308 10.6844 135.443 11.3075ZM140.844 9.36364V10.6562H136.563V9.36364H140.844ZM137.662 7.53409H139.308V14.733C139.308 14.9948 139.347 15.1953 139.427 15.3345C139.506 15.4704 139.611 15.5632 139.74 15.6129C139.873 15.6593 140.017 15.6825 140.173 15.6825C140.289 15.6825 140.391 15.6742 140.481 15.6577C140.574 15.6411 140.645 15.6278 140.695 15.6179L140.983 16.9354C140.89 16.9652 140.759 16.9983 140.59 17.0348C140.421 17.0746 140.214 17.0978 139.969 17.1044C139.548 17.1143 139.162 17.0447 138.81 16.8956C138.462 16.7464 138.182 16.5161 137.97 16.2045C137.761 15.893 137.659 15.5019 137.662 15.0312V7.53409ZM149.992 6.81818V17H148.301V8.48864H148.242L145.835 10.0398V8.45881L148.366 6.81818H149.992ZM156.315 17.179C155.517 17.179 154.831 16.9718 154.257 16.5575C153.687 16.1432 153.25 15.5433 152.945 14.7578C152.64 13.9723 152.489 13.0244 152.492 11.9141C152.492 10.8071 152.645 9.86411 152.95 9.08523C153.255 8.30303 153.692 7.70644 154.262 7.29545C154.836 6.88447 155.52 6.67898 156.315 6.67898C157.114 6.67898 157.799 6.88447 158.369 7.29545C158.942 7.70644 159.381 8.30303 159.686 9.08523C159.991 9.86742 160.144 10.8104 160.144 11.9141C160.144 13.0277 159.991 13.9773 159.686 14.7628C159.381 15.5483 158.944 16.1482 158.374 16.5625C157.804 16.9735 157.118 17.179 156.315 17.179ZM156.315 15.7422C156.978 15.7422 157.5 15.4174 157.881 14.7678C158.263 14.1148 158.452 13.1636 158.448 11.9141C158.448 11.0888 158.362 10.3928 158.19 9.82599C158.017 9.25923 157.772 8.83002 157.454 8.53835C157.136 8.24669 156.756 8.10085 156.315 8.10085C155.659 8.10085 155.14 8.42732 154.759 9.08026C154.378 9.72988 154.188 10.6745 154.188 11.9141C154.184 12.746 154.269 13.447 154.441 14.017C154.613 14.5838 154.859 15.013 155.177 15.3047C155.495 15.5964 155.875 15.7422 156.315 15.7422ZM163.509 15.608L163.445 16.1499C163.395 16.5575 163.31 16.9768 163.191 17.4077C163.075 17.8419 162.953 18.2429 162.823 18.6108C162.697 18.982 162.595 19.2737 162.515 19.4858H161.381C161.428 19.2803 161.489 19.0036 161.565 18.6555C161.645 18.3075 161.721 17.9164 161.794 17.4822C161.87 17.0514 161.925 16.6122 161.958 16.1648L161.998 15.608H163.509ZM168.903 17V15.777L172.399 12.2571C172.75 11.8925 173.042 11.571 173.274 11.2926C173.506 11.0142 173.68 10.7474 173.796 10.4922C173.912 10.2337 173.97 9.96023 173.97 9.67188C173.97 9.34044 173.893 9.0554 173.741 8.81676C173.588 8.57812 173.38 8.39418 173.114 8.26491C172.849 8.13565 172.549 8.07102 172.215 8.07102C171.867 8.07102 171.562 8.14228 171.3 8.2848C171.038 8.42732 170.836 8.6295 170.693 8.89133C170.551 9.15317 170.479 9.46307 170.479 9.82102H168.874C168.874 9.18797 169.018 8.63613 169.306 8.16548C169.595 7.69484 169.992 7.33026 170.499 7.07173C171.01 6.8099 171.591 6.67898 172.244 6.67898C172.907 6.67898 173.489 6.80658 173.989 7.06179C174.493 7.317 174.884 7.66501 175.163 8.10582C175.444 8.54332 175.585 9.04048 175.585 9.5973C175.585 9.97846 175.514 10.3513 175.372 10.7159C175.229 11.0805 174.979 11.4865 174.621 11.9339C174.266 12.3781 173.767 12.9167 173.124 13.5497L171.24 15.4986V15.5732H175.744V17H168.903ZM181.198 17.179C180.399 17.179 179.713 16.9718 179.14 16.5575C178.57 16.1432 178.132 15.5433 177.828 14.7578C177.523 13.9723 177.372 13.0244 177.375 11.9141C177.375 10.8071 177.528 9.86411 177.832 9.08523C178.137 8.30303 178.575 7.70644 179.145 7.29545C179.718 6.88447 180.403 6.67898 181.198 6.67898C181.997 6.67898 182.681 6.88447 183.252 7.29545C183.825 7.70644 184.264 8.30303 184.569 9.08523C184.874 9.86742 185.026 10.8104 185.026 11.9141C185.026 13.0277 184.874 13.9773 184.569 14.7628C184.264 15.5483 183.827 16.1482 183.256 16.5625C182.686 16.9735 182 17.179 181.198 17.179ZM181.198 15.7422C181.861 15.7422 182.383 15.4174 182.764 14.7678C183.145 14.1148 183.334 13.1636 183.331 11.9141C183.331 11.0888 183.245 10.3928 183.073 9.82599C182.9 9.25923 182.655 8.83002 182.337 8.53835C182.019 8.24669 181.639 8.10085 181.198 8.10085C180.542 8.10085 180.023 8.42732 179.642 9.08026C179.261 9.72988 179.07 10.6745 179.07 11.9141C179.067 12.746 179.152 13.447 179.324 14.017C179.496 14.5838 179.742 15.013 180.06 15.3047C180.378 15.5964 180.757 15.7422 181.198 15.7422ZM186.732 17V15.777L190.227 12.2571C190.578 11.8925 190.87 11.571 191.102 11.2926C191.334 11.0142 191.508 10.7474 191.624 10.4922C191.74 10.2337 191.798 9.96023 191.798 9.67188C191.798 9.34044 191.721 9.0554 191.569 8.81676C191.417 8.57812 191.208 8.39418 190.943 8.26491C190.677 8.13565 190.377 8.07102 190.043 8.07102C189.695 8.07102 189.39 8.14228 189.128 8.2848C188.866 8.42732 188.664 8.6295 188.521 8.89133C188.379 9.15317 188.308 9.46307 188.308 9.82102H186.702C186.702 9.18797 186.846 8.63613 187.134 8.16548C187.423 7.69484 187.82 7.33026 188.328 7.07173C188.838 6.8099 189.42 6.67898 190.073 6.67898C190.735 6.67898 191.317 6.80658 191.818 7.06179C192.321 7.317 192.712 7.66501 192.991 8.10582C193.273 8.54332 193.413 9.04048 193.413 9.5973C193.413 9.97846 193.342 10.3513 193.2 10.7159C193.057 11.0805 192.807 11.4865 192.449 11.9339C192.094 12.3781 191.595 12.9167 190.953 13.5497L189.068 15.4986V15.5732H193.573V17H186.732ZM198.977 17.1392C198.274 17.1392 197.651 17.0199 197.107 16.7812C196.564 16.5393 196.133 16.2045 195.815 15.777C195.5 15.3461 195.332 14.849 195.313 14.2855H197.023C197.043 14.5739 197.139 14.8241 197.311 15.0362C197.487 15.2483 197.717 15.4141 198.002 15.5334C198.291 15.6494 198.612 15.7074 198.967 15.7074C199.348 15.7074 199.686 15.6411 199.981 15.5085C200.279 15.3726 200.511 15.1854 200.677 14.9467C200.846 14.7048 200.929 14.428 200.926 14.1165C200.929 13.7917 200.846 13.505 200.677 13.2564C200.508 13.0078 200.264 12.8139 199.946 12.6747C199.628 12.5355 199.242 12.4659 198.788 12.4659H197.908V11.1236H198.788C199.156 11.1236 199.477 11.0606 199.752 10.9347C200.031 10.8054 200.248 10.6248 200.403 10.3928C200.563 10.1574 200.642 9.884 200.642 9.57244C200.642 9.27083 200.574 9.00734 200.438 8.78196C200.302 8.55658 200.11 8.38258 199.862 8.25994C199.616 8.134 199.328 8.07102 198.997 8.07102C198.675 8.07102 198.375 8.12902 198.097 8.24503C197.822 8.36103 197.598 8.52675 197.426 8.74219C197.256 8.95762 197.165 9.21449 197.152 9.51278H195.526C195.54 8.95265 195.702 8.46046 196.014 8.03622C196.328 7.60866 196.746 7.27557 197.266 7.03693C197.787 6.7983 198.367 6.67898 199.006 6.67898C199.676 6.67898 200.254 6.80658 200.742 7.06179C201.232 7.31368 201.61 7.65175 201.875 8.07599C202.144 8.50024 202.278 8.96591 202.278 9.47301C202.278 10.0464 202.114 10.5303 201.786 10.9247C201.457 11.3158 201.022 11.576 200.478 11.7053V11.7848C201.177 11.8842 201.714 12.1494 202.089 12.5803C202.467 13.0111 202.656 13.5464 202.656 14.1861C202.656 14.7528 202.497 15.2599 202.178 15.7074C201.86 16.1515 201.424 16.5012 200.871 16.7564C200.317 17.0116 199.686 17.1392 198.977 17.1392Z" fill="#2E2E2E"/>
<path fill-rule="evenodd" clip-rule="evenodd" d="M233.5 12C233.5 11.5858 233.835 11.25 234.25 11.25L243.939 11.25L241.219 8.53036C240.926 8.23748 240.926 7.7626 241.219 7.4697C241.512 7.17679 241.987 7.17676 242.28 7.46964L246.28 11.4696C246.421 11.6103 246.5 11.8011 246.5 12C246.5 12.1989 246.421 12.3897 246.28 12.5304L242.28 16.5304C241.987 16.8232 241.512 16.8232 241.219 16.5303C240.926 16.2374 240.926 15.7625 241.219 15.4696L243.939 12.75L234.25 12.75C233.835 12.75 233.5 12.4142 233.5 12Z" fill="#4A4A4A"/>
</svg>
